<?xml version="1.0" encoding="UTF-8"?>
<svg xmlns="http://www.w3.org/2000/svg" version="1.1" viewBox="0 0 1836.7 2050">
  <defs>
    <style>
      .cls-1 {
        fill: #5b359b;
      }
    </style>
  </defs>
  <!-- Generator: Adobe Illustrator 28.7.1, SVG Export Plug-In . SVG Version: 1.2.0 Build 142)  -->
  <g>
    <g id="Calque_1">
      <g id="Calque_1-2" data-name="Calque_1">
        <g>
          <path class="cls-1" d="M1071.2,824.9c62.9,0,113.9-65.7,113.9-146.8s-51-176.8-113.9-176.8-113.9,95.7-113.9,176.8,51,146.8,113.9,146.8Z"/>
          <path class="cls-1" d="M747.5,824.9c62.9,0,113.9-65.7,113.9-146.8s-51-176.8-113.9-176.8-113.9,95.7-113.9,176.8,51,146.8,113.9,146.8Z"/>
          <path class="cls-1" d="M551.3,1011.5c53.3-21.3,74.9-92.8,48.2-159.7s-101.5-128.6-154.8-107.3c-53.3,21.3-65,117.5-38.3,184.4s91.6,103.9,145,82.5h-.1Z"/>
          <path class="cls-1" d="M1374,744.5c-53.3-21.3-128.1,40.4-154.8,107.3-26.7,66.9-5.1,138.4,48.2,159.7s118.2-15.7,145-82.5c26.7-66.9,15-163.1-38.3-184.4h0Z"/>
          <path class="cls-1" d="M1243.3,1148.5c-75.5-107.3-196.4-215.6-334-215.6s-258.5,108.3-334,215.6c-32.2,45.8-61.3,95.2-73.6,150-12.2,54.8-5.5,116.1,28.4,160.6,33.9,44.5,98.2,66.7,148.5,42.6,29.9-14.3,54.1-43.2,87.1-46,30.3-2.5,57,17.8,82.3,34.9,18.2,12.3,40.2,23.5,61.3,23.7,21.1,0,43.1-11.3,61.3-23.7,25.2-17,52-37.4,82.3-34.9,33,2.8,57.2,31.7,87.1,46,50.3,24.1,114.6,1.9,148.5-42.6s40.6-105.8,28.4-160.6c-12.2-54.8-41.3-104.2-73.6-150ZM1029.2,1232.5c-15.5,28.4-40,53.4-60.7,72.8-11.1,10.5-22.8,20.2-35,29.3h0c-14.3,10.5-33.9,10.5-48.2,0h0c-12.2-9-23.9-18.8-35-29.3-20.7-19.4-45.2-44.4-60.7-72.8-12.8-23.4-19.5-49.2-12.9-76,6.4-25.7,26.7-48.3,51.5-51.4,28.8-3.6,62.3,16.6,81.2,39.9,19-23.3,52.5-43.5,81.2-39.9,24.9,3.2,45.2,25.7,51.5,51.4,6.6,26.8,0,52.6-12.9,76h0Z"/>
          <path class="cls-1" d="M1484.7,352l-362.5-209.3c-126.2-72.8-281.6-72.8-407.8,0l-362.5,209.3L25,25v622.1h0v689.7c0,145.7,77.7,280.3,203.9,353.1l485.6,280.3c126.2,72.8,281.6,72.8,407.8,0l485.6-280.3c126.2-72.8,203.9-207.5,203.9-353.1v-796.1h0V25l-327,327h-.1ZM1604.3,1334.9c0,72.8-38.9,140.2-101.9,176.6l-507.6,293.1c-47.3,27.3-105.6,27.3-152.9,0l-533.1-307.8c-47.3-27.3-76.5-77.8-76.5-132.4v-586.1c0-72.8,38.9-140.2,101.9-176.6l482.1-278.3c63.1-36.4,140.8-36.4,203.9,0l482.1,278.3c63.1,36.4,101.9,103.7,101.9,176.6v556.7h0Z"/>
        </g>
      </g>
    </g>
  </g>
</svg>